<?xml version="1.0" encoding="UTF-8"?>
<svg width="25px" height="24px" viewBox="0 0 25 24" version="1.1" xmlns="http://www.w3.org/2000/svg" xmlns:xlink="http://www.w3.org/1999/xlink">
    <title>B183113A-8E9F-4124-B94A-1C8574C798EB</title>
    <defs>
        <path d="M12.0178453,1 C15.8889932,1 19.0271787,4.13400675 19.0271787,8 C19.0271787,10.8997539 19.5508411,13.0787755 20.4069114,14.6461479 C20.6935494,15.1709511 20.9942643,15.5813809 21.2873909,15.8903804 C21.4193296,16.0294635 21.5153692,16.11427 21.5627776,16.1513653 L21.5852851,16.1679497 C22.3766466,16.6948215 22.0497549,17.898517 21.1458054,17.9939696 L21.0298453,18 L3.00584533,18 C2.05474724,18 1.65815718,16.8173794 2.35727044,16.2372047 L2.45040553,16.1679497 C2.48334157,16.1460216 2.58997332,16.0572801 2.74829971,15.8903804 C3.04142633,15.5813809 3.34214123,15.1709511 3.62877923,14.6461479 C4.44204601,13.1571441 4.95531473,11.1161269 5.00460843,8.42957123 L5.00851199,8 C5.00851199,4.13400675 8.14669742,1 12.0178453,1 Z M12.0178453,3 C9.32550562,3 7.12951812,5.12230671 7.01580433,7.78311038 L7.01117866,8 C7.01117866,11.2252461 6.40834113,13.7337245 5.38691143,15.6038521 L5.24851087,15.8493814 L5.15670933,16 L18.87798,16 L18.7871798,15.8493814 L18.6487792,15.6038521 C17.675989,13.8227782 17.0828743,11.4627013 17.028593,8.45588194 L17.024512,8 L17.0198863,7.78311038 C16.9061725,5.12230671 14.710185,3 12.0178453,3 Z M12.8839987,20.4982281 C13.1614891,20.0205018 13.7742296,19.8578791 14.2525929,20.135 C14.7309562,20.4121209 14.8937958,21.0240456 14.6163053,21.5017719 C14.0788931,22.4269784 13.0888744,22.9964563 12.0178453,22.9964563 C10.9468163,22.9964563 9.95679756,22.4269784 9.41938533,21.5017719 C9.14189489,21.0240456 9.30473449,20.4121209 9.78309777,20.135 C10.2272922,19.8776734 10.7873528,19.9995136 11.0872695,20.4007267 L11.2168223,20.5965394 C11.4044975,20.8464703 11.7005034,20.9964563 12.0178453,20.9964563 C12.3351873,20.9964563 12.6311932,20.8464703 12.8188684,20.5965394 L12.8839987,20.4982281 Z" id="path-1"></path>
    </defs>
    <g id="Page-1" stroke="none" stroke-width="1" fill="none" fill-rule="evenodd">
        <g id="04A---Home" transform="translate(-335.000000, -60.000000)">
            <g id="ic_bell" transform="translate(335.446667, 60.000000)">
                <rect x="0" y="0" width="24.032" height="24"></rect>
                <mask id="mask-2" fill="white">
                    <use xlink:href="#path-1"></use>
                </mask>
                <use id="Mask" fill="#000000" fill-rule="nonzero" xlink:href="#path-1"></use>
                <g id="Color-/-Primary-Grey" mask="url(#mask-2)" fill="#303638">
                    <rect id="color" x="0" y="0" width="24.032" height="24"></rect>
                </g>
            </g>
        </g>
    </g>
</svg>