<?xml version="1.0" encoding="UTF-8"?>
<svg width="24px" height="24px" viewBox="0 0 24 24" version="1.1" xmlns="http://www.w3.org/2000/svg" xmlns:xlink="http://www.w3.org/1999/xlink">
    <title>7D3AFC0F-9558-4D91-A456-322261B5213C</title>
    <defs>
        <path d="M17,2 L7,2 C5.34314575,2 4,3.34314575 4,5 L4,21 L4.00612714,21.1138161 C4.08697512,21.8562871 4.95088727,22.2639841 5.58123819,21.8137335 L12,17.228 L18.4187618,21.8137335 C19.0806303,22.2864967 20,21.8133726 20,21 L20,5 C20,3.34314575 18.6568542,2 17,2 Z M17,4 L17.1166211,4.00672773 C17.6139598,4.06449284 18,4.48716416 18,5 L18,19.057 L12.5812382,15.1862665 L12.4735862,15.1192106 C12.1413182,14.9403947 11.7316896,14.9627467 11.4187618,15.1862665 L6,19.056 L6,5 C6,4.44771525 6.44771525,4 7,4 L17,4 Z" id="path-1"></path>
    </defs>
    <g id="Page-1" stroke="none" stroke-width="1" fill="none" fill-rule="evenodd">
        <g id="04A---Home" transform="translate(-175.000000, -4047.000000)">
            <g id="Components-/-Bottom-Nav" transform="translate(0.000000, 4029.000000)">
                <g id="ic_bookmark" transform="translate(175.000000, 18.000000)">
                    <rect x="0" y="0" width="24" height="24"></rect>
                    <mask id="mask-2" fill="white">
                        <use xlink:href="#path-1"></use>
                    </mask>
                    <use id="Mask" fill="#000000" fill-rule="nonzero" xlink:href="#path-1"></use>
                    <g id="Color-/-Primary-Grey" mask="url(#mask-2)" fill="#5D686C">
                        <rect id="color" x="0" y="0" width="24" height="24"></rect>
                    </g>
                </g>
            </g>
        </g>
    </g>
</svg>