<?xml version="1.0" encoding="UTF-8"?>
<svg width="24px" height="24px" viewBox="0 0 24 24" version="1.1" xmlns="http://www.w3.org/2000/svg" xmlns:xlink="http://www.w3.org/1999/xlink">
    <title>64A0F2EA-74DB-49B1-BC30-64DD4E5876F7</title>
    <defs>
        <path d="M5,23 C3.34314575,23 2,21.6568542 2,20 L2,9 C2,8.69140957 2.14247284,8.40010398 2.38605939,8.21064778 L11.3860594,1.21064778 C11.7471699,0.929784072 12.2528301,0.929784072 12.6139406,1.21064778 L21.6139406,8.21064778 C21.8575272,8.40010398 22,8.69140957 22,9 L22,20 C22,21.6568542 20.6568542,23 19,23 Z M12,3.266 L4,9.488 L4,20 C4,20.5128358 4.38604019,20.9355072 4.88337887,20.9932723 L5,21 L8,21 L8,12 C8,11.4871642 8.38604019,11.0644928 8.88337887,11.0067277 L9,11 L15,11 C15.5128358,11 15.9355072,11.3860402 15.9932723,11.8833789 L16,12 L16,21 L19,21 C19.5128358,21 19.9355072,20.6139598 19.9932723,20.1166211 L20,20 L20,9.489 L12,3.266 Z M14,13 L10,13 L10,21 L14,21 L14,13 Z" id="path-1"></path>
    </defs>
    <g id="Page-1" stroke="none" stroke-width="1" fill="none" fill-rule="evenodd">
        <g id="04A---Home" transform="translate(-24.000000, -4047.000000)">
            <g id="Components-/-Bottom-Nav" transform="translate(0.000000, 4029.000000)">
                <g id="ic_home" transform="translate(24.000000, 18.000000)">
                    <rect x="0" y="0" width="24" height="24"></rect>
                    <mask id="mask-2" fill="white">
                        <use xlink:href="#path-1"></use>
                    </mask>
                    <use id="Mask" fill="#000000" fill-rule="nonzero" xlink:href="#path-1"></use>
                    <g id="Color-/-Primary-Grey" mask="url(#mask-2)" fill="#009499">
                        <rect id="color" x="0" y="0" width="24" height="24"></rect>
                    </g>
                </g>
            </g>
        </g>
    </g>
</svg>