<?xml version="1.0" encoding="UTF-8"?>
<svg width="20px" height="20px" viewBox="0 0 20 20" version="1.1" xmlns="http://www.w3.org/2000/svg" xmlns:xlink="http://www.w3.org/1999/xlink">
    <title>A0F99E4C-7FE3-407B-B73A-E693B6FA9180</title>
    <defs>
        <path d="M14.1666667,1.66666667 L5.83333333,1.66666667 C4.45262146,1.66666667 3.33333333,2.78595479 3.33333333,4.16666667 L3.33333333,17.5 L3.33843928,17.5948467 C3.4058126,18.2135726 4.12573939,18.5533201 4.65103183,18.1781112 L10,14.3566667 L15.3489682,18.1781112 C15.9005252,18.5720806 16.6666667,18.1778105 16.6666667,17.5 L16.6666667,4.16666667 C16.6666667,2.78595479 15.5473785,1.66666667 14.1666667,1.66666667 Z M14.1666667,3.33333333 L14.2638509,3.33893978 C14.6782998,3.38707737 15,3.73930347 15,4.16666667 L15,15.8808333 L10.4843652,12.6552221 L10.3946552,12.5993421 C10.1177652,12.4503289 9.77640798,12.4689556 9.51563484,12.6552221 L5,15.88 L5,4.16666667 C5,3.70642938 5.37309604,3.33333333 5.83333333,3.33333333 L14.1666667,3.33333333 Z" id="path-1"></path>
    </defs>
    <g id="Page-1" stroke="none" stroke-width="1" fill="none" fill-rule="evenodd">
        <g id="04A---Home" transform="translate(-198.000000, -578.000000)">
            <g id="Top-Trending" transform="translate(0.000000, 513.000000)">
                <g id="Components-/-Cards-/-Small_video_card" transform="translate(16.000000, 57.000000)">
                    <g id="ic_bookmark" transform="translate(182.000000, 8.000000)">
                        <rect x="0" y="0" width="20" height="20"></rect>
                        <mask id="mask-2" fill="white">
                            <use xlink:href="#path-1"></use>
                        </mask>
                        <use id="Mask" fill="#000000" fill-rule="nonzero" xlink:href="#path-1"></use>
                        <g id="Color-/-Primary-Grey" mask="url(#mask-2)" fill="#FFFFFF">
                            <rect id="color" x="0" y="0" width="20" height="20"></rect>
                        </g>
                    </g>
                </g>
            </g>
        </g>
    </g>
</svg>