<?xml version="1.0" encoding="UTF-8"?>
<svg width="24px" height="24px" viewBox="0 0 24 24" version="1.1" xmlns="http://www.w3.org/2000/svg" xmlns:xlink="http://www.w3.org/1999/xlink">
    <title>7C90DBF5-9033-4470-9AD6-2DAA1D550E11</title>
    <defs>
        <path d="M12,23 C16.1421356,23 19.5,19.6421356 19.5,15.5 C19.5,14.634 19.27,13.803 19,13.03 C17.333,14.677 16.067,15.5 15.2,15.5 C19.195,8.5 17,5.5 11,1.5 C11.5,6.5 8.204,8.774 6.862,10.037 C4.62206166,12.1439447 3.89524351,15.4047518 5.02834599,18.263531 C6.16144847,21.1223101 8.92485129,22.9997372 12,23 L12,23 Z M12.71,5.235 C15.951,7.985 15.967,10.122 13.463,14.509 C12.702,15.842 13.665,17.5 15.2,17.5 C15.888,17.5 16.584,17.3 17.319,16.905 C16.7215844,19.1617429 14.7646064,20.7954787 12.4374503,20.9802439 C10.1102941,21.1650092 7.92003686,19.8605443 6.97400105,17.7263442 C6.02796524,15.592144 6.53228791,13.0932415 8.232,11.493 C8.358,11.375 8.997,10.808 9.025,10.783 C9.449,10.403 9.798,10.066 10.143,9.697 C11.373,8.379 12.257,6.917 12.709,5.235 L12.71,5.235 Z" id="path-1"></path>
    </defs>
    <g id="Page-1" stroke="none" stroke-width="1" fill="none" fill-rule="evenodd">
        <g id="04A---Home" transform="translate(-100.000000, -4047.000000)">
            <g id="Components-/-Bottom-Nav" transform="translate(0.000000, 4029.000000)">
                <g id="ic_fire" transform="translate(100.000000, 18.000000)">
                    <rect x="0" y="0" width="24" height="24"></rect>
                    <mask id="mask-2" fill="white">
                        <use xlink:href="#path-1"></use>
                    </mask>
                    <use id="Mask" fill="#333333" fill-rule="nonzero" xlink:href="#path-1"></use>
                    <g id="Color-/-Primary-Grey" mask="url(#mask-2)" fill="#5D686C">
                        <rect id="color" x="0" y="0" width="24" height="24"></rect>
                    </g>
                </g>
            </g>
        </g>
    </g>
</svg>