<?xml version="1.0" encoding="UTF-8"?>
<svg width="139px" height="20px" viewBox="0 0 139 20" version="1.1" xmlns="http://www.w3.org/2000/svg" xmlns:xlink="http://www.w3.org/1999/xlink">
    <title>FBB62990-FD9C-4ED4-B8D5-B1CB9085A73C</title>
    <defs>
        <path d="M13.6693807,18.0504025 L13.6440717,18.0934047 L11.1668287,10.8260413 L8.79537713,3.06565328 L8.86118048,3.11015551 L11.4998949,10.760538 L13.6693807,18.0504025 Z M9.79761278,12.2251113 L5.05977151,12.2251113 L7.50208819,5.06125306 L7.59016345,5.06125306 L9.79761278,12.2251113 Z M18.3307889,19.5919796 C18.5697056,19.5654783 17.1159578,19.3919696 17.3882824,19.3234662 C17.2921083,19.2984649 17.2004898,19.2779639 17.0957106,19.2429621 C16.4963172,19.049104 15.9990795,18.6285705 15.7128279,18.0734037 C14.9218076,16.36392 14.2431329,14.6058558 13.6810229,12.8101405 L9.5612269,0.236511826 L8.67895582,0.236511826 L3.35495854,15.3247662 C3.06655626,16.202963 2.72251845,17.0623695 2.32488301,17.8978949 C2.08388798,18.3665768 1.71747171,18.7610503 1.26544906,19.0384519 C0.881250754,19.2650253 0.446848501,19.3954779 0,19.4184709 L0,19.5939797 L5.64795223,19.5939797 L5.64795223,19.4184709 C5.25551029,19.3803958 4.86976148,19.2919808 4.50044303,19.1554578 C3.88221833,18.8999342 3.48524354,18.2967364 3.49972591,17.6348817 C3.5250306,16.863747 3.68426236,16.102639 3.97047296,15.3847692 L4.88159628,12.6946347 L9.97376329,12.6946347 L10.7092423,15.1217561 C10.9920395,15.9346448 11.1699309,16.7795191 11.2387062,17.6363818 C11.3065976,18.3032496 10.9063168,18.9301806 10.2678537,19.1569578 C9.9174219,19.2890618 9.55166077,19.3774165 9.17906128,19.419971 L9.17906128,19.5954798 L16.5662467,19.5954798 L18.3307889,19.5919796 Z M31.0642435,18.4644232 C31.0642435,18.4644232 29.9506483,17.7528876 29.7815843,15.0967548 C29.6768051,13.4266713 29.3670232,12.7466373 28.1243522,11.7290865 L28.1430809,11.7290865 C29.3730208,12.4125726 30.1293233,13.7027683 30.1171814,15.0967548 C30.2336027,17.6058803 31.0652558,18.4644232 31.0652558,18.4644232 M24.2176579,9.62298115 L22.6859583,9.62298115 L22.6859583,4.00870044 C22.6859583,2.89764488 22.7153168,2.04960248 23.0094071,1.55257763 C23.3328559,0.997049852 23.9802596,0.852542627 24.7162448,0.852542627 L24.8929015,0.852542627 C27.5412333,0.852542627 28.3065769,2.69463473 28.3065769,5.29726486 C28.3513199,6.4181918 28.086774,7.530051 27.5412333,8.5139257 C26.9525464,9.30346517 26.2464258,9.62498125 24.2161393,9.62498125 M28.3561825,9.0619531 C29.5244451,7.99389969 30.2290471,6.91184559 30.2290471,5.52777639 C30.2241553,4.15486921 29.594187,2.85700059 28.5136043,1.99359968 L28.5313206,1.99359968 C29.8033872,2.73122625 30.5938795,4.07085377 30.6167807,5.52777639 C30.6167807,6.98884944 29.6874349,8.2059103 28.3713679,9.0619531 L28.3561825,9.0619531 Z M20.9806392,10.439022 L20.9072431,18.039402 L20.8677611,18.0709035 L20.6192269,10.420521 L20.7346359,2.34611731 L20.7852539,2.41062053 L20.9806392,10.439022 Z M35.0924209,19.5919796 C35.4852163,19.5419771 33.235754,19.3064653 33.5870427,19.1104555 C33.4571468,19.0501259 33.3336973,18.9770908 33.2185439,18.8924446 C32.5711402,18.3954198 32.0416763,17.1088554 31.5987691,14.5647282 C31.2444434,12.6346317 30.5393352,11.5235762 29.6246686,10.880544 C28.8968928,10.4236567 28.0700929,10.1431837 27.2117104,10.0620031 L27.2117104,9.97449872 C28.1504939,9.89997318 29.0628608,9.63095411 29.8894006,9.18495925 C31.3338315,8.38876634 32.2164233,6.87094108 32.1849251,5.23726186 C32.1849251,2.07910396 29.3305783,0.383019151 25.4755142,0.383019151 L16.5662467,0.383019151 L16.5662467,0.529026451 C16.8646604,0.564873122 17.1598063,0.623552368 17.449024,0.704535227 C18.098606,0.885257477 18.6093415,1.38185853 18.8025483,2.02060103 C19.0966386,2.98564928 19.1852201,4.74023701 19.1852201,6.58232912 L19.1852201,13.3956698 C19.1852201,15.2087604 19.1265032,16.9923496 18.8025483,17.9573979 C18.6311583,18.6046362 18.1278255,19.1151434 17.47737,19.3014651 C17.4485178,19.3099655 17.4176408,19.3159658 17.3877762,19.3234662 C17.288906,19.3214869 17.1949652,19.3660302 17.1346864,19.4434722 L18.0346738,19.5934797 L25.5089221,19.5934797 L25.5089221,19.4474724 C25.1428171,19.4256542 24.7788736,19.3768492 24.4201297,19.3014651 C23.7698078,19.1146606 23.2668582,18.6037721 23.0959638,17.9563978 C22.7725151,16.9913496 22.6839336,15.2062603 22.6839336,13.3946697 L22.6839336,10.1780089 L23.8314428,10.1780089 C25.2735486,10.1780089 26.1563258,10.2950148 26.8037296,11.0845542 C27.5984316,12.1081054 27.8631635,13.8041902 28.0398202,15.6752838 C28.1287442,17.0818261 28.6071107,18.4372078 29.4227029,19.5934797 L32.4532003,19.5934797 L35.0924209,19.5919796 Z M45.9246648,18.0504025 L45.899862,18.0934047 L43.422619,10.8260413 L41.0511674,3.06565328 L41.1169708,3.11015551 L43.7556852,10.760538 L45.9246648,18.0504025 Z M40.0469071,5.06125306 L42.2538502,12.2251113 L37.5160089,12.2251113 L39.9583256,5.06125306 L40.0469071,5.06125306 Z M50.7055314,19.5919796 L49.8176923,19.3164658 C49.7301232,19.2924646 49.6471098,19.2749637 49.551948,19.2434622 C48.9525546,19.049604 48.455317,18.6290705 48.1690653,18.0739037 C47.3785692,16.3643801 46.7004022,14.6063171 46.1387788,12.8106405 L42.0189829,0.237011851 L41.1362056,0.237011851 L35.8096774,15.3252663 C35.5212789,16.2034644 35.177241,17.062871 34.7796019,17.8983949 C34.5386069,18.3670768 34.1721906,18.7615504 33.7201679,19.0389519 C33.6776489,19.0679534 33.6325989,19.0889544 33.5890674,19.1109555 C33.2565074,19.1074554 33.0641592,19.3284664 33.3445827,19.3499675 L34.7213912,19.5949797 L38.105202,19.5949797 L38.105202,19.419471 C37.7127601,19.3813958 37.3270113,19.2929808 36.9576928,19.1564578 C36.3394681,18.9009342 35.9424933,18.2977364 35.9569757,17.6358818 C35.9822904,16.8647483 36.1415218,16.1036419 36.4277227,15.3857693 L37.3388461,12.6956348 L42.4320254,12.6956348 L43.1675044,15.1227561 C43.4503016,15.9356449 43.6281931,16.7805192 43.6969683,17.6373819 C43.7648598,18.3042497 43.3645789,18.9311806 42.7261158,19.1579579 C42.375684,19.2900618 42.0099229,19.3784166 41.6373234,19.420971 L41.6373234,19.5964798 L49.0224841,19.5964798 L50.7055314,19.5919796 Z M60.6772699,10.6465323 C61.5013304,11.4965748 61.7367039,12.9566478 61.7367039,14.1847092 C61.7367039,15.8512926 61.471972,17.1963598 60.8539266,17.8983949 C60.1449575,18.653349 59.1590036,19.0957495 58.1170134,19.1264563 L57.7626877,19.1264563 C56.5559555,19.1264563 55.7324012,18.7764388 55.3790878,17.5763788 C55.1483563,16.5696599 55.0495171,15.5378284 55.0849975,14.5062253 L55.0849975,9.56447822 L57.7039708,9.56447822 C58.8009345,9.52061727 59.8704426,9.90996922 60.6762576,10.6465323 M57.4392389,9.09645482 L55.086516,9.09645482 L55.086516,4.06720336 C55.0638451,3.40216461 55.1033257,2.73647776 55.2044559,2.07860393 C55.4398294,1.11355568 56.1753084,0.850542527 57.0879502,0.850542527 L57.470622,0.850542527 C59.795505,0.850542527 61.0017311,2.05060253 61.0017311,4.71023551 C61.0017311,5.67528376 60.795716,7.04935247 60.2070291,7.86839342 C59.5369927,8.69143302 58.5086541,9.1479547 57.4407574,9.09645482 M60.8741738,7.82339117 C61.9928308,6.91634582 62.6695929,5.99529976 62.6695929,4.82324116 C62.6695929,3.65118256 62.145697,2.72813641 61.0270401,1.82309115 L61.0442502,1.82309115 C62.3041313,2.55012751 63.044672,3.58417921 63.044672,4.82324116 C63.044672,6.06230312 62.1507588,7.09835492 60.8908777,7.82339117 L60.8741738,7.82339117 Z M53.6018912,10.4365218 L53.4804081,18.0369018 L53.4409261,18.0684034 L53.2384542,10.4180209 L53.3062823,2.34361718 L53.3569002,2.40812041 L53.6018912,10.4365218 Z M61.5251208,18.3429171 C62.7677918,17.2228611 63.5199747,16.0863043 63.5199747,14.6362318 C63.5199747,13.1861593 62.9383743,12.0501025 61.6977281,10.9295465 L61.7164567,10.9295465 C63.0628424,11.6944506 63.9031027,13.1021635 63.9289678,14.6362318 C63.9289678,16.1683084 62.9464732,17.4448722 61.5463804,18.3429171 L61.5251208,18.3429171 Z M59.2356704,9.30096505 L59.2356704,9.21346067 C60.034919,9.05281381 60.8143613,8.80772586 61.5605534,8.48242412 C63.1494512,7.78238912 64.267602,6.64033202 64.267602,4.71023551 C64.267602,1.23056153 61.2953153,0.382519126 58.0881612,0.382519126 L49.0224841,0.382519126 L49.0224841,0.528526426 C49.2578577,0.557527876 49.6698879,0.616030802 49.9052614,0.674533727 C50.5704614,0.85684682 51.0933042,1.36539229 51.2881441,2.01960098 C51.5822345,2.98464923 51.6424699,4.76973849 51.6424699,6.61033052 L51.6424699,13.3941697 C51.6424699,15.2072604 51.583753,16.9908495 51.2881441,17.9558978 C51.0933042,18.6101065 50.5704614,19.118652 49.9052614,19.300965 L49.8181985,19.3154658 C50.0561029,19.379469 50.1386102,19.4819741 50.3537365,19.5034752 L50.4939483,19.5934797 L59.1450642,19.5934797 C62.6174564,19.5934797 65.3543697,17.6048802 65.3543697,14.1837092 C65.3543697,11.2890645 62.588098,9.50497525 59.2336457,9.30046502 M83.5064771,15.6557828 L83.4953412,15.7057853 L78.9878116,9.4759738 L74.4367506,2.74363718 L74.5126776,2.76713836 L79.2910132,9.34246712 L83.5064771,15.6557828 Z M86.8649789,0.705035252 C87.0404001,0.65286562 87.2191381,0.612274091 87.4000108,0.583529176 C87.2678979,0.560528026 88.2002808,0.392519626 88.1005634,0.380019001 L87.0411294,0.383519176 L81.744972,0.383519176 L81.744972,0.529526476 C82.0646625,0.551526895 82.3806454,0.61043091 82.6864661,0.705035252 C83.293337,0.895185965 83.7802732,1.34678163 84.010632,1.93309665 C84.4028228,3.06050139 84.5725883,4.25172422 84.5107375,5.44227211 L84.5107375,13.8056903 L84.4520207,13.8056903 L75.3590099,0.382519126 L69.1502107,0.382519126 L69.1502107,0.558027901 C69.4620276,0.584269341 69.7686551,0.653094783 70.061334,0.762538127 C70.8315498,1.08553966 71.4721621,1.65086165 71.8835806,2.37061853 C72.2379064,3.07065353 72.5309844,4.56372819 72.5309844,6.63983199 L72.5309844,14.5642282 C72.5995646,15.7501139 72.4096895,16.9367274 71.9741868,18.0439022 C71.7685637,18.6151145 71.3151543,19.0655786 70.7380961,19.2719636 C70.4019446,19.3661028 70.0566736,19.4249316 69.7080206,19.4474724 L69.7080206,19.5934797 L75.858103,19.5934797 L75.858103,19.4474724 C75.5284904,19.4279763 75.2024904,19.3690426 74.8872505,19.2719636 C74.2941765,19.0700645 73.820778,18.6210692 73.592443,18.0439022 C73.2983527,17.3438672 73.0923376,16.4648232 73.0923376,14.5642282 L73.0923376,3.74518726 L73.1804128,3.74518726 L84.3922915,19.7984899 L85.0690536,19.7984899 L85.0690536,5.44127206 C85.0072028,4.25072417 85.1769683,3.05950134 85.5691591,1.9320966 C85.7880552,1.34875723 86.2650333,0.896366887 86.8639666,0.704035202 M91.701019,10.4365218 L91.6752039,18.0369018 L91.6357219,18.0684034 L91.3391006,10.4180209 L91.5025966,2.34361718 L91.5532146,2.40812041 L91.701019,10.4365218 Z M101.930403,6.05530277 L101.291604,0.705035252 C101.095878,0.605093515 100.888004,0.53031532 100.673053,0.482524126 L100.458939,0.382519126 L87.865696,0.382519126 L85.7949152,0.682534127 C85.6207894,0.695034752 87.5412349,0.560028001 87.4000108,0.582529126 C87.5773415,0.610693291 87.7524163,0.651298042 87.9239067,0.704035202 C88.5861947,0.873532536 89.1106398,1.37263792 89.3067894,2.02010101 C89.6008798,2.98514926 89.6894612,4.77023851 89.6894612,6.61083054 L89.6894612,13.3946697 C89.6894612,15.2077604 89.601386,16.9913496 89.3067894,17.9563978 C89.1105517,18.6038079 88.5861444,19.1028774 87.9239067,19.2724636 C87.6353601,19.3561582 87.3399862,19.4148827 87.0411294,19.4479724 L87.0411294,19.5939797 L102.019491,19.5939797 L102.490238,13.4531727 L102.342939,13.4531727 C101.848476,15.0530483 101.027252,16.5358089 99.9299812,17.8098905 C99.1419053,18.7047464 97.9799593,19.1903688 96.7810377,19.1259563 L96.1629924,19.1259563 C95.4560338,19.1677579 94.7542907,18.9831005 94.1620644,18.59943 C93.073272,17.780889 93.1319888,15.7047852 93.1319888,14.4492225 L93.1319888,9.85549277 L94.1914228,9.85549277 C95.8689021,9.85549277 96.5750226,10.2055103 97.0766466,10.6450323 C97.8273425,11.4435809 98.3013801,12.4573567 98.4301709,13.539677 L98.6068276,13.539677 L98.6068276,5.70528526 L98.4301709,5.70528526 C98.2605066,6.84213358 97.7476877,7.90200316 96.9587068,8.74643732 C96.4019092,9.27296365 95.8699144,9.3899695 94.1924351,9.3899695 L93.1330012,9.3899695 L93.1330012,5.41327066 C93.1330012,4.12670634 93.1623596,2.13810691 94.3098688,1.31956598 C94.7965326,0.97481081 95.3900151,0.809226848 95.9873481,0.851542577 L96.7228271,0.851542577 C97.7268796,0.855505125 98.6848893,1.26809115 99.3711589,1.9920996 C100.473971,3.14578793 101.290461,4.53673252 101.756277,6.05530277 L101.930403,6.05530277 Z M118.699628,15.700785 L118.677356,15.7362868 L116.637958,9.5899795 L114.696759,3.03015151 L114.752945,3.06865343 L116.940147,9.53697685 L118.699628,15.700785 Z M109.115623,15.700785 L109.093351,15.7362868 L107.052941,9.58947947 L105.111742,3.02965148 L105.167928,3.06815341 L107.35513,9.53647682 L109.115623,15.700785 Z M127.208001,0.558027901 L127.208001,0.382519126 L121.589407,0.382519126 L121.589407,0.558027901 C122.648335,0.616530827 123.649052,1.0260513 123.649052,2.31261563 C123.588853,3.14901284 123.420793,3.97439435 123.148947,4.76873844 L120.176154,14.5057253 L120.088078,14.5057253 L117.615897,4.85524276 C117.350507,4.05037837 117.192263,3.21482264 117.14515,2.36961848 C117.14515,1.1120556 118.410599,0.673533677 119.381452,0.556527826 L119.381452,0.381019051 L110.435739,0.381019051 L110.435739,0.527026351 C111.24802,0.643523259 111.984681,1.06183261 112.495384,1.69658483 C112.878056,2.16460823 113.172146,2.92464623 113.642893,4.32821641 L110.523815,14.5057253 L110.435739,14.5057253 L107.964064,4.88524426 C107.693249,4.07286651 107.544536,3.22563867 107.522676,2.37061853 C107.522676,1.2300615 108.552245,0.704035202 109.435528,0.557527876 L109.435528,0.382019101 L100.233183,0.378518926 L101.293123,0.702535127 C101.348803,0.721536077 101.404482,0.739036952 101.460668,0.762038102 C103.108283,1.34706735 103.520313,2.63363168 104.52103,6.20081004 L108.317378,19.739487 L109.435528,19.739487 L113.93749,5.38226911 L117.969211,19.739487 L119.087361,19.739487 L123.825203,4.65123256 C124.077424,3.74181501 124.422555,2.86007401 124.855278,2.01960098 C125.321515,1.15384013 126.217622,0.597323591 127.20952,0.557527876 M131.542417,9.2079604 C135.899611,11.1010551 136.651794,13.6831842 136.651794,13.6831842 C136.651794,13.6831842 135.816092,11.2940647 131.63606,9.66148307 C129.481926,8.83236007 127.843585,7.05672149 127.206989,4.86124306 L127.215594,4.83924196 C128.320078,6.94984749 129.385586,8.26841342 131.542417,9.20546027 M136.625979,6.05280264 L136.802636,6.05280264 L136.419964,0.438521926 L136.18459,0.438521926 L135.389888,1.57907895 L135.36053,1.57907895 C134.683768,0.672533627 133.035647,0 131.299451,0 C128.062432,0 125.561399,2.31011551 125.561399,5.20476024 C125.561399,8.80144007 128.209731,10.380519 130.887927,11.4915746 C133.889572,12.719636 135.095798,13.6551828 135.095798,15.8777939 C135.095798,17.719886 134.271738,19.5329766 131.800063,19.5329766 C128.504327,19.5329766 126.797489,16.3163158 125.855995,12.9536477 L125.647955,12.9536477 L125.853971,19.4159708 L126.001269,19.4159708 L126.825329,18.099905 L126.943269,18.099905 C127.708613,18.9769488 129.709541,20 131.798544,20 C135.006204,20 138.184,17.9238962 138.184,14.1812091 C138.184,9.99949997 135.712325,9.2099605 132.651457,7.74788739 C130.561947,6.75383769 128.590378,6.11030552 128.590378,3.36166808 C128.590378,1.51957598 129.767245,0.467023351 131.327291,0.467023351 C132.624188,0.422163899 133.862974,0.999655985 134.652385,2.01710086 C135.447087,2.86714336 136.27216,4.67823391 136.626485,6.05230262" id="path-1"></path>
    </defs>
    <g id="Page-1" stroke="none" stroke-width="1" fill="none" fill-rule="evenodd">
        <g id="04A---Home" transform="translate(-119.000000, -62.000000)">
            <g id="Utilities-/-ic_logo" transform="translate(119.158667, 62.000000)">
                <mask id="mask-2" fill="white">
                    <use xlink:href="#path-1"></use>
                </mask>
                <use id="Mask" fill="#FFFFFF" fill-rule="nonzero" xlink:href="#path-1"></use>
                <g id="Color-/-White" mask="url(#mask-2)" fill="#000000">
                    <rect id="color" x="0" y="0" width="138.184" height="20"></rect>
                </g>
            </g>
        </g>
    </g>
</svg>