<?xml version="1.0" encoding="UTF-8"?>
<svg width="25px" height="24px" viewBox="0 0 25 24" version="1.1" xmlns="http://www.w3.org/2000/svg" xmlns:xlink="http://www.w3.org/1999/xlink">
    <title>8392D072-BEA1-4BFB-A861-DA7FE053A746</title>
    <defs>
        <path d="M21.028,4 C21.5810211,4 22.0293333,4.44771525 22.0293333,5 C22.0293333,5.51283584 21.6427784,5.93550716 21.1447766,5.99327227 L21.028,6 L3.004,6 C2.45097887,6 2.00266667,5.55228475 2.00266667,5 C2.00266667,4.48716416 2.38922158,4.06449284 2.88722338,4.00672773 L3.004,4 L21.028,4 Z M15.02,11 C15.5730211,11 16.0213333,11.4477153 16.0213333,12 C16.0213333,12.5128358 15.6347784,12.9355072 15.1367766,12.9932723 L15.02,13 L3.004,13 C2.45097887,13 2.00266667,12.5522847 2.00266667,12 C2.00266667,11.4871642 2.38922158,11.0644928 2.88722338,11.0067277 L3.004,11 L15.02,11 Z M21.028,18 C21.5810211,18 22.0293333,18.4477153 22.0293333,19 C22.0293333,19.5128358 21.6427784,19.9355072 21.1447766,19.9932723 L21.028,20 L3.004,20 C2.45097887,20 2.00266667,19.5522847 2.00266667,19 C2.00266667,18.4871642 2.38922158,18.0644928 2.88722338,18.0067277 L3.004,18 L21.028,18 Z" id="path-1"></path>
    </defs>
    <g id="Page-1" stroke="none" stroke-width="1" fill="none" fill-rule="evenodd">
        <g id="04A---Home" transform="translate(-16.000000, -60.000000)">
            <g id="ic_menu" transform="translate(16.021333, 60.000000)">
                <rect x="0" y="0" width="24.032" height="24"></rect>
                <mask id="mask-2" fill="white">
                    <use xlink:href="#path-1"></use>
                </mask>
                <use id="Mask" fill="#000000" fill-rule="nonzero" xlink:href="#path-1"></use>
                <g id="Color-/-Primary-Grey" mask="url(#mask-2)" fill="#303638">
                    <rect id="color" x="0" y="0" width="24.032" height="24"></rect>
                </g>
            </g>
        </g>
    </g>
</svg>