<?xml version="1.0" encoding="UTF-8"?>
<svg width="24px" height="24px" viewBox="0 0 24 24" version="1.1" xmlns="http://www.w3.org/2000/svg" xmlns:xlink="http://www.w3.org/1999/xlink">
    <title>5BBB32E0-F4B6-4093-A783-B618DDDF7C41</title>
    <defs>
        <path d="M22,18.9999999 C22,20.6568541 20.6568542,21.9999999 19,21.9999999 L18,21.9999999 C16.3431458,21.9999999 15,20.6568541 15,18.9999999 L15,15.9999999 C15,14.3431456 16.3431458,12.9999999 18,12.9999999 L20,12.999 L20,12 C20,7.58172197 16.418278,4 12,4 C7.66508574,4 4.13545713,7.44783774 4.00380682,11.7508207 L4,12 L4,12.999 L6,12.9999999 C7.59768088,12.9999999 8.90366088,14.2489198 8.99490731,15.8237271 L9,15.9999999 L9,18.9999999 C9,20.6568541 7.65685425,21.9999999 6,21.9999999 L5,21.9999999 C3.34314575,21.9999999 2,20.6568541 2,18.9999999 L2,12 C2,6.47715246 6.47715251,2 12,2 C17.4292399,2 21.8479317,6.32667075 21.9961582,11.7200952 L22,12 Z M20,14.999 L18,14.9999999 C17.4477153,14.9999999 17,15.4477151 17,15.9999999 L17,18.9999999 C17,19.5522846 17.4477153,19.9999999 18,19.9999999 L19,19.9999999 C19.5522847,19.9999999 20,19.5522846 20,18.9999999 L20,14.999 Z M6,14.9999999 L4,14.999 L4,18.9999999 C4,19.5522846 4.44771525,19.9999999 5,19.9999999 L6,19.9999999 C6.55228475,19.9999999 7,19.5522846 7,18.9999999 L7,15.9999999 C7,15.4477151 6.55228475,14.9999999 6,14.9999999 Z" id="path-1"></path>
    </defs>
    <g id="Page-1" stroke="none" stroke-width="1" fill="none" fill-rule="evenodd">
        <g id="04A---Home" transform="translate(-251.000000, -4047.000000)">
            <g id="Components-/-Bottom-Nav" transform="translate(0.000000, 4029.000000)">
                <g id="ic_podcast" transform="translate(251.000000, 18.000000)">
                    <rect x="0" y="0" width="24" height="24"></rect>
                    <mask id="mask-2" fill="white">
                        <use xlink:href="#path-1"></use>
                    </mask>
                    <use id="Mask" fill="#000000" fill-rule="nonzero" xlink:href="#path-1"></use>
                    <g id="Color-/-Primary-Grey" mask="url(#mask-2)" fill="#5D686C">
                        <rect id="color" x="0" y="0" width="24" height="24"></rect>
                    </g>
                </g>
            </g>
        </g>
    </g>
</svg>