<?xml version="1.0" encoding="UTF-8"?>
<svg width="25px" height="24px" viewBox="0 0 25 24" version="1.1" xmlns="http://www.w3.org/2000/svg" xmlns:xlink="http://www.w3.org/1999/xlink">
    <title>4D34B6F7-AAE5-4D20-95D4-41D53F68965F</title>
    <defs>
        <path d="M11.0146667,2 C15.9918568,2 20.0266667,6.02943725 20.0266667,11 C20.0266667,13.124779 19.2893747,15.0775836 18.0563505,16.6171757 L21.7360496,20.2928932 C22.1270946,20.6834175 22.1270946,21.3165825 21.7360496,21.7071068 C21.375085,22.0675907 20.8070976,22.0953203 20.4142834,21.7902954 L20.3199504,21.7071068 L16.6393319,18.0323074 C15.097687,19.2636898 13.1422787,20 11.0146667,20 C6.0374765,20 2.00266667,15.9705627 2.00266667,11 C2.00266667,6.02943725 6.0374765,2 11.0146667,2 Z M11.0146667,4 C7.14351876,4 4.00533333,7.13400675 4.00533333,11 C4.00533333,14.8659932 7.14351876,18 11.0146667,18 C12.907662,18 14.6253899,17.25059 15.8866054,16.0326404 C15.9098201,16.0004394 15.9359698,15.9710363 15.9641504,15.9428932 C15.9945257,15.9125584 16.026367,15.8845799 16.0594465,15.8589577 C17.2755752,14.6013756 18.024,12.8879734 18.024,11 C18.024,7.13400675 14.8858146,4 11.0146667,4 Z" id="path-1"></path>
    </defs>
    <g id="Page-1" stroke="none" stroke-width="1" fill="none" fill-rule="evenodd">
        <g id="04A---Home" transform="translate(-291.000000, -60.000000)">
            <g id="ic_search" transform="translate(291.388000, 60.000000)">
                <rect x="0" y="0" width="24.032" height="24"></rect>
                <mask id="mask-2" fill="white">
                    <use xlink:href="#path-1"></use>
                </mask>
                <use id="Mask" fill="#000000" fill-rule="nonzero" xlink:href="#path-1"></use>
                <g id="Color-/-Primary-Grey" mask="url(#mask-2)" fill="#303638">
                    <rect id="color" x="0" y="0" width="24.032" height="24"></rect>
                </g>
            </g>
        </g>
    </g>
</svg>